<svg width="720" height="450" fill="none" xmlns="http://www.w3.org/2000/svg"><path d="M77.69 384.154c.028.022 567.338-.07 567.338-.07 18.677-39.839 18.646-59.303 20.772-82.139 11.734-126.213-83.329-145.617-111.177-150.88-85.273-16.115-46.463-95.848-268.668-80.888-20.367 1.37-68.385 12.44-84.934 19.611-11.607 5.027-55.338 27.516-68.168 65.556-4.053 12.006-5.025 25.563-.939 40.606 14.461 53.24-23.241 50.18-50.79 75.551-36.77 33.858-32.926 89.232-3.435 112.653z" fill="#EBF3FA"/><path d="M415.622 384.12h.077a.817.817 0 00.817-.837l-1.238-53.64-3.645-.425 3.11 54.069a.88.88 0 00.879.833z" fill="#B0D4FF"/><path d="M436.867 384.12h.076a.817.817 0 00.817-.837l-1.238-53.64-3.645-.425 3.108 54.069a.884.884 0 00.882.833" fill="#95C0F4"/><path d="M378.243 384.12h-.076a.819.819 0 01-.817-.837l1.237-53.64 3.647-.425-3.109 54.069a.884.884 0 01-.882.833zM439.281 326.315v-36.756c0-6.469-5.243-11.711-11.709-11.711h-26.485c-6.466 0-11.711 5.242-11.711 11.711v38.162l49.905-1.406z" fill="#B0D4FF"/><path d="M384.633 332.118h51.134a3.514 3.514 0 003.514-3.515v-2.288h-54.648v5.803z" fill="#95C0F4"/><path d="M378.504 332.118h38.684a2.599 2.599 0 002.601-2.599v-.603a2.601 2.601 0 00-2.601-2.601h-38.684a2.601 2.601 0 00-2.599 2.601v.603a2.599 2.599 0 002.599 2.599z" fill="#CAE5FF"/><path d="M467.644 264.645H314.975V132.854h152.669v131.791z" fill="#95C0F4"/><path d="M464.675 262.017H317.88V135.049h146.795v126.968z" fill="#DFEDFB"/><path d="M369.187 190.292h-32.166v-40.168l5.454-4.916h26.712v45.084z" fill="#fff"/><path d="M337.021 150.125h5.278l.176-4.917-5.454 4.917zM358.254 149.607h-10.301v-.49h10.301v.49zM360.677 151.078H345.53v-.49h15.147v.49zM365.98 160.668h-25.152v-.63h25.152v.63zM365.98 162.585h-25.152v-.632h25.152v.632zM365.98 164.5h-25.152v-.63h25.152v.63zM365.98 166.415h-25.152v-.63h25.152v.63zM365.98 186.907h-25.152v-.63h25.152v.63z" fill="#B0D4FF"/><path d="M406.33 246.02h-32.168v-40.167l5.456-4.917h26.712v45.084" fill="#fff"/><path d="M374.162 205.853h5.28l.176-4.917-5.456 4.917zM395.395 205.335h-10.299v-.491h10.299v.491zM397.82 206.807h-15.149v-.491h15.149v.491zM403.123 216.396h-25.152v-.63h25.152v.63zM403.123 218.313h-25.152v-.632h25.152v.632zM403.123 220.228h-25.152v-.632h25.152v.632zM403.123 222.142h-25.152v-.63h25.152v.63zM403.123 228.035h-25.152v-.63h25.152v.63zM403.123 229.95h-25.152v-.63h25.152v.63zM403.123 232.171h-25.152v-.63h25.152v.63zM406.719 145.208h17.761v15.658h-17.761v-15.658z" fill="#B0D4FF"/><path d="M414.823 147.071a.777.777 0 11.777.779.778.778 0 01-.777-.779z" fill="#FFA412"/><path d="M406.195 167.024l17.719-1.237 1.091 15.621-17.719 1.238-1.091-15.622z" fill="#fff"/><path d="M414.477 169.288a.775.775 0 01.722-.828.773.773 0 01.828.72.776.776 0 11-1.55.108" fill="#B0D4FF"/><path d="M347.171 224.714l17.721-1.237 1.089 15.621-17.719 1.238-1.091-15.622z" fill="#fff"/><path d="M355.453 226.978a.78.78 0 01.722-.831.778.778 0 11-.722.831z" fill="#B0D4FF"/><path d="M324.835 234.898l17.761-.183.16 15.658-17.759.183-.162-15.658z" fill="#fff"/><path d="M332.966 237.65a.778.778 0 111.558-.016.778.778 0 01-1.558.016" fill="#B0D4FF"/><path d="M433.321 175.246l17.485 3.125-2.754 15.415-17.485-3.125 2.754-15.415z" fill="#EEF6FF"/><path d="M441.025 178.778a.674.674 0 01.785-.546.675.675 0 11-.785.546z" fill="#78ACEA"/><path d="M378.585 167.389l17.658-1.913 1.685 15.568-17.658 1.913-1.685-15.568z" fill="#EEF6FF"/><path d="M386.971 168.615a.677.677 0 111.345-.149.677.677 0 01-1.345.149z" fill="#78ACEA"/><path d="M332.768 206.197l17.37-3.704 3.267 15.314-17.372 3.706-3.265-15.316z" fill="#BAE8E3"/><path d="M341.525 206.982a.678.678 0 01.738-1.136.677.677 0 01-.738 1.136z" fill="#FFA412"/><path d="M396.709 160.866h-16.905v-11.358l4.68-4.3h12.225v15.658z" fill="#fff"/><path d="M379.714 149.508h4.618l.152-4.3-4.77 4.3zM388.318 146.657a.555.555 0 111.11 0 .555.555 0 01-1.11 0z" fill="#B0D4FF"/><path d="M446.105 253.849h-16.906v-11.36l4.68-4.3h12.226v15.66z" fill="#fff"/><path d="M429.109 242.489h4.617l.153-4.299-4.77 4.299zM437.713 239.638a.556.556 0 111.111.001.556.556 0 01-1.111-.001z" fill="#B0D4FF"/><path d="M453.816 231.307h-16.904v-11.358l4.68-4.302h12.224v15.66z" fill="#fff"/><path d="M436.819 219.949h4.62l.153-4.302-4.773 4.302zM445.426 217.096a.557.557 0 111.109.001.557.557 0 01-1.109-.001z" fill="#B0D4FF"/><path d="M431.507 231.307h-16.906v-11.358l4.68-4.302h12.226v15.66z" fill="#BAE8E3"/><path d="M414.511 219.949h4.617l.153-4.302-4.77 4.302z" fill="#A1D6CE"/><path d="M423.115 217.096a.557.557 0 111.113.001.557.557 0 01-1.113-.001z" fill="#F99746"/><path d="M458.588 156.947h-16.906v-11.358l4.68-4.3h12.226v15.658z" fill="#BAE8E3"/><path d="M441.592 145.588h4.617l.153-4.299-4.77 4.299z" fill="#A1D6CE"/><path d="M450.196 142.735a.557.557 0 111.113.003.557.557 0 01-1.113-.003z" fill="#F99746"/><path d="M291.409 129.665h-32.157a2.692 2.692 0 01-2.684-2.684V95.945a2.692 2.692 0 012.684-2.685h32.157a2.692 2.692 0 012.684 2.684v31.037a2.692 2.692 0 01-2.684 2.684z" fill="#C0D8FB"/><path d="M290.016 128.088h-29.371a2.457 2.457 0 01-2.451-2.45V97.29a2.458 2.458 0 012.451-2.453h29.371a2.46 2.46 0 012.453 2.453v28.348a2.46 2.46 0 01-2.453 2.45z" fill="#DFEBFD"/><path d="M274.554 98.16a.776.776 0 111.555 0 .779.779 0 01-1.555 0zM280.825 99.259a.777.777 0 111.36.756.777.777 0 01-1.36-.756zM286.2 103.527a.775.775 0 011.073.234.778.778 0 11-1.073-.234M288.862 110.135a.779.779 0 010 1.555.777.777 0 110-1.555zM287.503 117.803a.784.784 0 010 1.101.78.78 0 01-1.101 0 .78.78 0 010-1.101.784.784 0 011.101 0zM282.62 122.699a.775.775 0 010 1.098.775.775 0 01-1.098 0 .775.775 0 010-1.098.775.775 0 011.098 0zM274.554 125.222a.777.777 0 111.553-.005.777.777 0 01-1.553.005zM269.811 99.259a.777.777 0 10-1.36.756.777.777 0 001.36-.756zM264.438 103.527a.777.777 0 10-.841 1.307.777.777 0 00.841-1.307M261.776 110.135a.777.777 0 10-.002 1.556.777.777 0 00.002-1.556zM263.135 117.803a.777.777 0 101.098 1.103.777.777 0 00-1.098-1.103zM268.015 122.699a.777.777 0 101.099 1.098.777.777 0 00-1.099-1.098zM275.121 110.914a.779.779 0 111.555 0 .777.777 0 01-1.555 0z" fill="#B7D3F3"/><path d="M276.005 110.914h-.213v-9.711h.213v9.711z" fill="#B7D3F3"/><path d="M275.996 111.15l-.393-.502 5.15-4.041.391.502-5.148 4.041z" fill="#B7D3F3"/><path d="M489.373 382.201c-.153 2.088-3.101 2.11-6.444 1.723-3.344-.389-2.455.457-7.137.522-4.68.065-6.294-1.483-6.521-2.151-.202-.594 2.052-1.093 4.464-1.681.304-.072.61-.148.914-.225 2.72-.693 4.52-2.727 6.846-4.504 2.206-1.685 5.049-7.778 5.049-7.778l6.395-.291s-2.693 5.463-3.706 7.819c-.594 1.384-.34 3.087-.083 4.392.139.711.277 1.438.223 2.174z" fill="#FFB27D"/><path d="M482.929 383.924c-3.344-.389-2.455.457-7.137.522-4.68.065-6.294-1.483-6.521-2.151-.202-.594 2.052-1.093 4.464-1.681l.029.045s3.015 1.618 6.87 1.231c3.143-.315 6.349-1.626 8.516-1.863.139.711.277 1.438.223 2.174-.153 2.088-3.101 2.11-6.444 1.723" fill="#233862"/><path d="M533.543 382.633c-.151 2.09-3.099 2.115-6.442 1.73-3.344-.385-2.455.461-7.135.531-4.682.07-6.298-1.476-6.525-2.144-.202-.594 2.052-1.096 4.464-1.686.302-.074.608-.15.911-.227 2.721-.695 4.518-2.731 6.845-4.511 2.203-1.688 0-11.669 0-11.669l7.036-.684s-.338 8.404-.333 12.225c.002 1.507.695 2.956.956 4.263.137.711.277 1.436.223 2.172" fill="#FFB27D"/><path d="M527.101 384.363c-3.344-.385-2.455.461-7.135.531-4.682.07-6.298-1.476-6.525-2.144-.202-.594 2.052-1.096 4.464-1.685l.027.042s3.017 1.616 6.872 1.224c3.143-.317 6.347-1.633 8.516-1.869.137.711.277 1.435.223 2.171-.151 2.09-3.099 2.115-6.442 1.73" fill="#233862"/><path d="M513.014 210.119c-1.211-4.98.544-7.299 2.128-8.535.751-1.833 1.609-3.154 2.484-3.654 1.6-.906 3.515-1.008 4.855-.927-.344-.357-1.023-.486-1.023-.486.83-.123 2.686.7 2.686.7 11.558-4.453 13.374 12.566 13.131 16.52-.241 3.953-.209 8.61 5.805 11.724 11.475 5.945-3.814 28.346-3.814 28.346.293-3.195-14.449-20.057-22.142-25.108-1.872-2.756-2.538-7.625-2.587-8.01.324 3.861.983 6.028 1.575 7.247-3.506-3.226-4.025-10.973-3.098-17.817" fill="#A9453D"/><path d="M517.579 228.951c-.038.018 3.715 1.964 6.536 1.193 2.655-.723 4.39-4.165 4.354-4.174-1.125-.223-1.449-1.769-1.425-8.406l-.508.099-8.545 1.692s.193 2.691.2 5.224c.004 2.127-.124 4.145-.612 4.372" fill="#FFB27D"/><path d="M517.99 219.355s.194 2.691.201 5.224c4.781-.135 7.31-4.498 8.345-6.916l-8.546 1.692" fill="#ED975D"/><path d="M483.219 371.493a2.097 2.097 0 001.899 2.731l3.339.156 3.532.108a2.833 2.833 0 002.287-1.044c2.821-3.459 11.499-14.988 16.764-31.739.149-.47.304-.945.471-1.426 3.476-10.139 10.685-22.865 14.483-34.383a184.47 184.47 0 002.086-6.741c2.801-9.726 3.611-16.112 4.358-22.934l-27.43.218s-5.773 44.883-21.789 95.054" fill="#2A4E96"/><path d="M508.849 260.678c.07 13.052-1.915 18.653-1.915 18.653s11.743 5.967 25.702 1.575c.164-.052 11.556-2.653 11.556-2.653-.232-.527-2.311-9.324-2.538-9.808-2.948-6.329-5.184-9.103-5.533-11.049-.648-3.632-.664-7.392-.34-10.935.851-9.383 3.384-17.172 3.384-17.172-3.802-.867-7.364-2.388-11.322-3.87-.911 1.134-3.694 2.319-6.108 2.265-2.781-.063-3.684-1.253-3.54-2.551-2.961 1.649-5.325 3.206-5.325 3.206-2.518 4.374-7.626 8.622-7.995 15.332-.092 1.649 3.972 16.643 3.974 17.007z" fill="#fff"/><path d="M532.438 262.134c1.199 1.697 3.496 12.01 9.216 13.309-2.948-7.353-5.184-10.575-5.533-12.836-.648-4.219-.664-8.584-.34-12.702-1.915-3.354-3.343-5.656-3.343-5.656-.151-.543-3.042-9.484-3.969-1.492-.925 7.997 2.63 17.478 3.969 19.377" fill="#5F9AA8"/><path d="M516.393 221.753s11.315.189 11.322-6.86c.009-7.047 1.474-11.77-5.751-12.188-7.222-.416-8.629 2.27-9.205 4.624-.573 2.351.691 14.195 3.634 14.424" fill="#FFB27D"/><path d="M516.811 202.531s3.099 8.269 7.853 9.493c4.754 1.222 6.817-.052 6.817-.052s-3.647-2.898-4.405-7.953c0 0-7.927-5.423-10.265-1.488z" fill="#A9453D"/><path d="M517.579 203.204s-2.313 1.845-2.878 3.641c-.563 1.795-.817 5.49-1.895 5.364 0 0-2.333-5.621.291-8.8 2.781-3.37 4.482-.205 4.482-.205" fill="#A9453D"/><path d="M498.589 269.739l-5.344 16.292 3.049 1.222 8.835-14.393-6.54-3.121" fill="#FFB27D"/><path d="M512.998 227.378s-6.303 2.502-8.125 6.399c-1.825 3.9-4.586 30.049-5.686 32.736-1.1 2.684-1.926 4.81-1.926 4.81s3.177 2.678 6.372 2.873c3.195.198 9.365-46.818 9.365-46.818" fill="#F99746"/><path d="M518.195 225.133s-6.545 16.173-6.738 19.444c-.192 3.274-.77 53.521-.77 53.521s.385 2.311-4.043 1.348c-4.428-.961-5.582-1.924-5.582-1.924s4.234-30.996 3.08-41.778 8.856-28.366 8.856-28.366l5.197-2.245z" fill="#F99746"/><path d="M488.457 374.38l3.836.117a2.217 2.217 0 001.778-.803c2.578-3.121 11.569-14.81 16.969-31.989.149-.47.304-.945.471-1.426 3.476-10.139 10.685-22.865 14.483-34.382a184.493 184.493 0 002.085-6.741l-4.038-3.065s-12.128 19.636-15.881 38.117c-3.26 16.052-16.321 35.368-19.703 40.172" fill="#1E3D70"/><path d="M523.62 335.929c-.065 8.503.338 27.453 1.373 36.716.094.848.81 1.487 1.665 1.487h2.862c1.206 0 2.108-.009 2.706-.018.52-.007.963-.38 1.062-.889 2.847-14.483 4.883-26.514 6.375-36.911 1.248-8.701 2.355-16.162 3.208-22.585.86-6.462 1.456-11.874 1.67-16.448.033-.718.058-1.42.072-2.099.013-.684.018-1.348.011-1.994l-23.699-2.308c.299 15.745 2.733 39.827 2.695 45.049z" fill="#2A4E96"/><path d="M529.52 374.132c1.082 0 1.921-.007 2.515-.016a1.334 1.334 0 001.289-1.077c2.829-14.4 4.854-26.373 6.339-36.725 1.248-8.701 2.355-16.161 3.208-22.585.86-6.462 1.456-11.873 1.67-16.448l-8.697 5.117s5.551 1.957 3.434 16.783c-2.117 14.822-6.811 52.852-9.758 54.951" fill="#1E3D70"/><path d="M528.399 297.137s1.67 6.03 7.445 5.261c5.776-.77 13.989-4.235 13.989-4.235s-2.469-7.801-5.538-18.045c-3.714-12.404-8.313-28.395-10.482-38.482-.608-2.826-1.024-5.186-1.177-6.878l-4.793-9.297s-7.143 16.036-7.53 20.079c-.385 4.043 8.086 51.597 8.086 51.597" fill="#F99746"/><path d="M534.166 244.937l-6.323-19.476c.016.009 7.988 2.372 11.997 4.399 0 0 2.504 3.231 4.055 10.683 0 0 1.64 17.896-2.019 24.442 0 0-11.551 2.31-30.032-4.044v-4.234s20.213 1.057 24.353 1.539l-2.031-13.309" fill="#FFB27D"/><path d="M528.655 254.011c.259 6.546 1.798 19.251 15.532 26.053.036.018.072.038.108.054-3.715-12.404-8.314-28.395-10.483-38.482-2.522 3.769-5.296 8.771-5.157 12.375" fill="#ED7D2B"/><path d="M527.843 225.461s11.723.828 14.546 7.117c2.824 6.289 3.722 27.209.129 33.37 0 0-4.948 1.408-13.698-.227a36.87 36.87 0 00-.324-.061s-2.793-6.836-.288-8.183c0 0 7.38.384 6.608-2.055-.77-2.436-6.973-29.961-6.973-29.961" fill="#F99746"/><path d="M498.449 259.324l.344 1.109 19.238-5.983s.257-.292.131-.682c-.14-.427-.475-.429-.475-.429l-19.238 5.985z" fill="#A9453D"/><path d="M497.059 260.372l1.39-1.048.344 1.109-1.734-.061z" fill="#A9453D"/><path d="M494.006 285.586s-4.881 2.697-5.524 4.752c-.642 2.054-.201 6.356.573 6.293.777-.065 1.931-4.624 2.574-4.946.642-.319 1.542-1.282 1.542-.576 0 .705-.644 1.989-.322 2.183.322.191 1.348-1.798 2.054-2.183.707-.387 1.004-3.561 1.69-4.414.686-.853-2.587-1.109-2.587-1.109M511.843 256.707s-4.365-2.689-6.196-2.275c-1.829.414-6.496 3.794-4.253 4.525 2.246.731 4.064-.036 4.926.495.864.531 1.5 1.503 5.523 1.49 4.021-.014 0-4.235 0-4.235z" fill="#FFB27D"/><path d="M168.629 227.831c-.732-1.411 15.961-6.492 16.225 7.434 0 0 31.27-.77 16.339-18.198-5.169-6.035-4.637-11.023-4.482-15.667.157-4.647-3.22-18.144-14.794-16.785 0 0-3.031-1.233-6.813.731-8.603 4.462-27.874 47.619-6.475 42.485z" fill="#163560"/><path d="M219.751 243.398s2.035-3.098 3.676-3.159c1.64-.061 4.678-.911 4.435-.304-.243.608-2.126.669-2.309 1.033-.182.365 2.795.911 3.645.972.851.061 2.856 0 2.795.425-.061.426-3.614 2.187-6.12 1.944-2.507-.243-5.606.729-5.606.729l-.516-1.64" fill="#FFB27D"/><path d="M190.314 244.402s1.106 2.189 3.113 4.707c2.419 3.028 6.148 6.529 10.831 7.22 2.236.328 4.423-.151 6.434-1.044l.007-.002c5.687-2.525 9.963-8.33 9.963-8.33 1.003-2.734-.638-4.588-.638-4.588s-11.483 2.583-12.577 2.037c-1.093-.547-7.473-18.927-8.991-21.236-1.52-2.308-6.697-3.507-6.697-3.507l-1.445 24.743z" fill="#B0D0FF"/><path d="M193.427 249.109c2.419 3.028 6.148 6.529 10.831 7.22 2.236.328 4.423-.151 6.434-1.044-.222.029-5.902.731-8.166-3.319-2.309-4.133-4.806-10.694-8.237-8.507-1.48.943-1.414 3.29-.862 5.65z" fill="#98BAF4"/><path d="M147.472 368.354s-3.503 3.2-2.82 5.47c.684 2.273 3.846 3.787 4.273 6.566.428 2.776 2.137 4.29 3.675 4.29h7.334s1.133-1.955-1.602-2.542c-2.735-.59-3.766-3.852-3.595-6.883.171-3.029-.257-7.067-.257-7.067l-5.811-1.348-1.197 1.514M177.13 369.713s-1.261 13.545.278 14.303l19.686-.04s0-2.273-3.162-2.777c-3.162-.506-8.717-2.355-9.657-6.479-.94-4.125-7.145-5.007-7.145-5.007" fill="#233862"/><path d="M163.1 272.527c4.052-9.086 6.531-11.694 6.057-14.513-.352-2.099 1.073-39.132 1.073-39.132.48-.148 1.444-.283 1.971-.4 1.662-.369 3.037-1.535 3.61-3.139.689-1.931 1.237-4.781 1.224-8.356l.519.103 8.726 1.728s-.198 2.745-.204 5.332l-.001.066a5.02 5.02 0 003.623 4.851c1.102.319 2.061.591 2.061.591s3.204 9.147 3.816 18.545c.612 9.398-5.827 13.48.048 32.258 5.998 19.181-34.761 7.085-32.523 2.066" fill="#FFB27D"/><path d="M186.28 208.818s-.199 2.745-.204 5.333c-4.883-.138-7.464-4.593-8.522-7.061l8.726 1.728z" fill="#E8945B"/><path d="M187.911 211.266s-11.553.191-11.561-7.004c-.008-7.196-1.504-12.018 5.872-12.445 7.375-.425 8.812 2.32 9.398 4.72.587 2.401-.704 14.495-3.709 14.729" fill="#FFB27D"/><path d="M187.483 191.641s-3.163 8.442-8.017 9.691c-4.854 1.249-6.96-.051-6.96-.051s3.723-2.959 4.496-8.123c0 0 8.095-5.535 10.481-1.517" fill="#163560"/><path d="M186.699 192.325s2.346.878 3.311 2.588c.944 1.674 1.749 3.89 1.562 6.608 0 0 2.383-5.74-.295-8.984-2.84-3.443-4.578-.212-4.578-.212" fill="#163560"/><path d="M185.397 206.802s.797 1.051 2.392.974c1.285-.06 1.78-1.174 1.78-1.174s-2.36-.567-4.172.2" fill="#EBF3FA"/><path d="M161.986 235.264s-.294 4.136 0 9.099c.194 3.29 3.523 7.698 3.995 8.787 1.185 2.733 2.521 3.179 2.521 3.179l10.336 2.533 3.635.889 11.461-3.422s5.22-14.571 3.124-22.775c-2.096-8.201-5.299-13.896-5.299-13.896s-9.352 9.156-21.53-.778l-8.243 16.384" fill="#B0D0FF"/><path d="M165.011 245.707c.195 3.289.498 6.354.97 7.443 1.185 2.734 2.521 3.179 2.521 3.179l10.336 2.534 4.49-1.321s-14.987-2.27-13.326-15.165l-4.991 3.33" fill="#F2CCAA"/><path d="M193.205 258.541s5.676 17.667 6.04 23.681c.365 6.014-10.849 85.448-11.301 88.22-.425 2.612-3.669 4.277-3.669 4.277s-1.492.88-3.621.279c-2.955-.834-3.889-1.833-3.889-1.833s-4.418-56.651-1.684-76.887c2.734-20.237 2.766-37.737 2.766-37.737h15.358" fill="#ED7D2B"/><path d="M169.157 258.014s-8.658 11.617-9.465 19.469c-.807 7.853-1.266 35.436-2.986 43.092-1.719 7.655-8.037 22.388-8.037 46.265 0 0 .656 1.368 2.684 2.097.649.234 1.518.461 2.361.652a3.709 3.709 0 004.151-1.968c4.272-8.6 17.878-36.338 18.575-42.096.494-4.074 4.79-31.043 14.161-46.867 2.25-3.798-1.381-18.907-1.381-18.907l-20.063-1.737" fill="#F99746"/><path d="M185.654 206.996s.2.848 2.309.717c0 0 1.772-.11 1.717-1.041 0 0-1.717-.664-4.026.324z" fill="#fff"/><path d="M194.112 255.814s-2.279 1.802-6.806 1.892c-5.406.11-18.804-1.377-18.804-1.377s-.595 1.663-.571 3.418c0 0 16.363 4.128 25.844.603 0 0 1.222-2.3.337-4.536" fill="#233862"/><path d="M186.954 259.573c0 1.09.74 1.976 1.65 1.976.909 0 1.649-.886 1.649-1.976 0-1.089-.74-1.975-1.649-1.975-.91 0-1.65.886-1.65 1.975zm-.818 0c0-1.539 1.107-2.792 2.468-2.792 1.36 0 2.467 1.253 2.467 2.792 0 1.54-1.107 2.793-2.467 2.793-1.361 0-2.468-1.253-2.468-2.793z" fill="#fff"/><path d="M150.887 259.009l16.764 14.598 19.982-22.948-16.764-14.598-19.982 22.948z" fill="#B5453C"/><path d="M172.283 259.063s6.142.718 6.123 2.176c-.019 1.458-1.53 4.452-2.289 4.587-.758.133-4.999-4.052-4.999-4.052l1.165-2.711" fill="#FFB27D"/><path d="M170.229 218.88s-8.2.576-11.344 8.217c-3.143 7.643-9.108 20.473-9.108 22.631 0 2.16 3.332 8.813 21.225 12.638 0 0 1.85-1.946 1.738-3.485 0 0-11.169-9.594-11.139-10.717.057-2.12 1.831-4.921 11.638-14.729 2.666-2.668-3.01-14.555-3.01-14.555" fill="#B0D0FF"/><path d="M260.833 384.262h-.078a.815.815 0 01-.815-.835l1.238-53.64 3.645-.425-3.11 54.069a.881.881 0 01-.88.831" fill="#B0D4FF"/><path d="M239.589 384.262h-.079a.815.815 0 01-.814-.835l1.237-53.64 3.645-.425-3.109 54.069a.881.881 0 01-.88.831" fill="#95C0F4"/><path d="M298.211 384.262h.078a.818.818 0 00.817-.835l-1.24-53.64-3.645-.425 3.11 54.069a.881.881 0 00.88.831M237.172 326.459v-36.758c0-6.466 5.245-11.711 11.712-11.711h26.482c6.469 0 11.711 5.245 11.711 11.711v38.162l-49.905-1.404z" fill="#B0D4FF"/><path d="M291.823 332.262h-51.134a3.517 3.517 0 01-3.517-3.517v-2.286h54.651v5.803" fill="#95C0F4"/><path d="M297.952 332.262h-38.687a2.598 2.598 0 01-2.598-2.599v-.603a2.6 2.6 0 012.598-2.601h38.687a2.6 2.6 0 012.598 2.601v.603a2.598 2.598 0 01-2.598 2.599z" fill="#B0D4FF"/><path d="M296.449 317.3c-3.794 6.603-8.566 9.153-8.566 9.153h-19.852s31.311-14.189 28.418-9.153z" fill="#233862"/><path d="M281.203 368.39c-.518.592-.585 1.256-.329 1.962l.005.009c.475 1.31 2.038 2.77 3.856 4.23.232.187.439.358.619.515.047.041.095.084.137.124.039.034.072.068.108.097 1.695 1.561 1.056 1.919 4.1 5.089 3.472 3.612 5.861 3.677 6.541 3.348.576-.281-.592-2.196-1.888-4.349-.063-.103-.124-.209-.189-.313l-.515-.866c-1.517-2.59-1.128-3.805-.768-7.661.293-3.134 4.876-17.505 4.876-17.505l-6.653-1.148s-2.003 11.446-4.21 13.208c-1.179.94-2.502.952-3.636 1.647a7.172 7.172 0 00-.234.151c-.646.427-1.303.868-1.82 1.462" fill="#FFB27D"/><path d="M281.203 368.39c-.518.592-.585 1.256-.329 1.962 0 .003.003.007.005.009.58 1.308 2.106 2.761 3.861 4.217a21.438 21.438 0 01.751.652c.039.034.072.068.108.097 1.695 1.561 1.056 1.919 4.1 5.089 3.472 3.612 5.861 3.677 6.541 3.348.576-.281-.592-2.196-1.888-4.349-.675-.247-3.814-1.523-6.188-4.558-2.09-2.666-3.483-6.093-4.907-8.08-.079.05-.157.099-.234.151-.646.427-1.303.868-1.82 1.462" fill="#233862"/><path d="M334.836 364.234c.412 2.055 3.339 1.713 6.608.912 3.27-.799 2.493.153 7.146-.363 4.653-.515 6.064-2.252 6.206-2.943.126-.614-2.174-.83-4.64-1.113-.31-.036-.621-.075-.933-.113-2.784-.349-4.822-2.146-7.353-3.622-2.397-1.398-5.972-7.092-5.972-7.092l-6.381.504s3.348 5.087 4.644 7.299c.763 1.3.722 3.021.628 4.349-.05.722-.097 1.46.047 2.182" fill="#FFB27D"/><path d="M341.444 365.146c3.269-.799 2.493.153 7.146-.363 4.653-.515 6.064-2.252 6.206-2.943.126-.614-2.174-.83-4.64-1.113l-.022.047s-2.79 1.978-6.665 2.07c-3.157.076-6.5-.828-8.68-.792-.05.722-.097 1.46.047 2.182.412 2.055 3.339 1.713 6.608.912zM310.378 323.426l-5.964 16.054-7.79 20.963s-2.113.203-4.137-.378c-1.863-.54-4.003-1.948-4.003-1.948s2.164-22.507 6.198-35.426c1.033-3.317 2.192-5.999 3.472-7.511 6.253-7.391 12.224 8.246 12.224 8.246" fill="#233862"/><path d="M304.312 297.931c-3.908-1.26-15.054.358-26.253 2.55l-2.344-3.868-24.19-1.888s-7.981 17.701-3.611 28.978c.643 1.658 1.919 2.72 4.095 2.756h.353s14.396-.009 19.069-.009c12.031 0 25.459-8.269 27.196-8.615 2.844-.569 3.98 5.119 6.824 11.088 2.844 5.971 26.728 26.444 26.728 26.444s3.669.036 5.186-.533c1.631-.612 2.227-1.406 2.227-1.406s-26.464-52.653-35.28-55.497" fill="#2B478B"/><path d="M274.763 226.184c-3.098-1.627-7.814-1.848-8.579-1.951-9.166-1.231-14.683 12.087-15.007 16.123-.599 7.439-4.534 8.573-10.071 13.23-11.106 9.342-7.851 20.196-1.778 24.228 3.645 2.421 10.067 0 10.067 0 .09.063 17.563-9.767 26.176-14.51 12.913-1.836 7.088-32.974-.808-37.12z" fill="#233862"/><path d="M268.353 259.268c.038.024-4.239 1.482-7.097.218-2.691-1.19-4.727-5.614-4.689-5.616 1.224-.056 2.568-1.127 3.603-8.147l.522.189 8.759 3.152s-.635 2.81-1.046 5.485c-.345 2.248-.531 4.401-.052 4.719" fill="#FFB27D"/><path d="M269.451 249.064s-.634 2.81-1.046 5.485c-5.031-.904-7.007-5.917-7.713-8.638l8.759 3.153z" fill="#ED975D"/><path d="M270.756 251.854s-11.986-1.611-10.87-9.059c1.116-7.447.322-12.672 8.021-11.961 7.7.714 8.757 3.778 8.989 6.354.232 2.577-2.995 14.891-6.14 14.666" fill="#FFB27D"/><path d="M276.46 233.107s-7.673 6.61-12.89 7.143c-5.22.534-7.196-1.143-7.196-1.143s3.076-2.553 4.928-6.675a3.667 3.667 0 013.026-2.163c3.726-.321 10.788-.468 12.132 2.838" fill="#233862"/><path d="M271.665 232.513s2.565 2.481 3.375 4.322c.779 1.777 1.013 6.025.392 7.713 0 0 4-7.776 1.734-11.554-2.4-4.007-5.501-.481-5.501-.481z" fill="#233862"/><path d="M278.444 276.923c-.362 24.262-.099 19.19-2.751 21.494-.642.554-2.439.885-4.804 1.04-7.441.495-20.518-.731-21.015-2.106-1.717-4.757-.504-6.235-1.935-13.518a66.08 66.08 0 00-.551-2.527c-1.195-5.002-2.356-6.703 1.878-14.74 3.841-7.278 7.83-13.187 8.19-12.973 10.132 6.014 10.949.958 10.949.958s10.217 10.537 10.039 22.372" fill="#fff"/><path d="M304.414 339.48l-7.79 20.963s-2.112.203-4.137-.378c-1.863-.54-4.003-1.948-4.003-1.948s2.164-22.507 6.199-35.427l9.731 16.79" fill="#2B478B"/><path d="M268.405 254.549s10.426 1.769 11.65 6.258c1.224 4.488 8.429 30.876 8.429 30.876s-5.299.954-7.749-1.494c-2.448-2.45-8.519-22.718-8.519-22.718l-3.811-12.922" fill="#fff"/><path d="M270.889 299.457c-7.441.495-20.518-.731-21.015-2.106-1.717-4.756-.504-6.235-1.935-13.518l3.586-10.105s-.592 11.253 2.725 14.211c3.316 2.959 13.586 5.713 15.199 8.186.778 1.188 1.291 2.376 1.44 3.332z" fill="#EBF3FF"/><path d="M262.366 294.725s7.339-1.633 8.523-.983c1.183.652 4.077 3.024 4.441 3.85.362.825-2.637-.628-3.613-.889-.63-.169-2.295.407-3.117.682-3.465 1.156-5.586.562-5.586.562l-.648-3.222" fill="#FFB27D"/><path d="M257.45 253.586s-9.855.608-13.266 5.366c-4.804 6.699-14.331 35.242-8.87 39.051 6.149 4.287 27.983 1.121 27.983 1.121s.727-3.395-.283-5.04c-1.013-1.643-17.44-4.295-18.198-5.054-.758-.758 9.477-14.787 9.477-17.061 0-2.275 3.157-18.383 3.157-18.383z" fill="#fff"/><path d="M271.244 295.785s1.537 1.985 2.041 2.221.83.178.83.178l-1.035-1.866-1.836-.533zM270.889 293.742l4.47 2.171s-.191.311-.74.286c-.551-.025-1.939-.533-1.939-.533l-1.791-1.924z" fill="#FFB27D"/><path d="M273.285 301.046h35.368l10.64-26.458h-35.314l-10.694 26.458z" fill="#F99746"/><path d="M309.067 300.013h-46.701v1.033h46.287l.414-1.033" fill="#ED7D2B"/><path d="M299.725 287.815c.267-.929-.27-1.682-1.202-1.682-.929 0-1.899.753-2.166 1.682-.266.93.272 1.686 1.201 1.686.931 0 1.901-.756 2.167-1.686z" fill="#fff"/><path d="M458.005 385.243h.104c.605 0 1.093-.529 1.08-1.17l-1.638-75.105-4.82-.597 4.111 75.706c.036.655.547 1.166 1.163 1.166M262.541 385.243h-.103c-.605 0-1.094-.529-1.08-1.17l1.638-75.105 4.819-.597-4.11 75.706c-.036.655-.547 1.166-1.164 1.166" fill="#78ACEA"/><path d="M463.813 310.349H257.544a3.06 3.06 0 01-3.06-3.06v-2.943a3.06 3.06 0 013.06-3.06h206.269a3.059 3.059 0 013.057 3.06v2.943c0 1.69-1.368 3.06-3.057 3.06z" fill="#78ACEA"/><path d="M212.591 172.566c-.78-19.285 15.383-27.853 31.912-27.853 16.526 0 34.513 4.282 36.07 29.925 1.003 16.497-7.792 26.647-33.114 26.647-8.541 0-15.178-1.348-20.263-3.748l-12.658 11.247 6.221-15.547c-5.511-5.123-7.832-12.35-8.168-20.671" fill="#DFEDFB"/><path d="M588.229 385.159s.463-3.622 1.541-5.775c1.078-2.156 7.931-.786 7.931-.786s1.371 1.177 1.665 6.66l-11.137-.099zM564.878 385.11c1.609-.983.693-8.316.693-8.316s-7.503-6.003-8.536-1.406c-1.031 4.597-7.128 6.66-10.6 7.222-2.394.389-3.136 1.715-3.366 2.5h21.809z" fill="#233862"/><path d="M580.421 331.776c-.306 1.683-.499 3.064-.551 4.054-.697 13.606-11.455 44.719-13.378 45.444-2.977 1.122-7.664-1.265-10.116-2.046-1.017-.324-1.704-1.35-1.476-2.389 5.325-24.489 7.283-59.751 7.996-80.629.36-10.514 2.165-17.777 2.165-17.777s26.235-7 26.39 1.854c.137 7.834-8.69 38.563-11.03 51.489" fill="#213F7A"/><path d="M580.421 331.776l-17.525-35.566c.36-10.514 2.165-17.777 2.165-17.777s26.235-7 26.39 1.854c.137 7.835-8.69 38.563-11.03 51.489z" fill="#233862"/><path d="M574.585 280.319l13.867 100.514s6.09 1.469 10.827.294c0 0 4.061-53.46 3.723-66.384-.339-12.923 2.914-34.582-.742-36.969-3.656-2.39-27.675 2.545-27.675 2.545z" fill="#213F7A"/><path d="M604.962 278.642a1.924 1.924 0 01-1.388 1.989c-1.935.56-4.165.952-8.467 1.843-4.041.839-9.477 1.582-16.155 1.624-10.625.068-14.645-3.595-14.645-3.595-.459.009.24-2.214.87-12.785.214-3.582.419-8.12.567-13.857a747.87 747.87 0 00.234-18.57c.012-8.752 13.559-18.166 13.809-18.166l.002.002c0 1.26 1.987 3.587 5.044 3.787 3.632.238 8.085-1.568 8.085-3.661 0-.02 6.563 10.501 8.894 21.71 1.179 5.641.702 5.49 3.15 39.679" fill="#B0D0FF"/><path d="M579.787 217.125s-12.598-.108-15.629 4.144c-3.031 4.253-9.677 27.124-6.21 34.734 3.47 7.612 9.959-3.148 13.561-7.81 3.602-4.662 8.278-31.068 8.278-31.068" fill="#B0D0FF"/><path d="M579.658 215.201l.007 1.303s-.355 4.072 4.66 4.666c5.015.597 8.737-.76 8.599-3.901-.452-2.435-.87-4.932-.904-6.946-.011-.749.041-1.541.18-2.439l-9.718-.193-2.862.468.038 7.042" fill="#FFB27D"/><path d="M579.62 208.159l.038 7.042a8.179 8.179 0 003.501.774c4.467 0 7.354-3.276 8.861-5.652-.011-.749.041-1.541.18-2.439l-9.718-.193-2.862.468" fill="#E2915A"/><path d="M592.945 206.32c-1.128 6.069-8.958 5.868-12.341 5.488-.952-.106-1.551-.227-1.551-.227-1.073-.288-1.674-1.978-1.95-4.194-.554-4.383.144-10.818.884-12.463 1.116-2.477 3.215-5.155 11.099-3.222 7.886 1.933 5.305 6.845 3.859 14.618" fill="#FFB27D"/><path d="M566.906 234.169s-4.872 10.759-4.73 13.986c0 0 2.412-.083 4.73.607 3.809 1.134 0-14.593 0-14.593z" fill="#98BAF4"/><path d="M575.568 189.149s3.47-.268 7.565-2.048c3.321-1.444 7.512.146 8.874.864a1.994 1.994 0 00-.333-.819s.612.434.702 1.04c.063.045.09.078.074.087 0 0 .693-.126 1.138.075 0 0-.312-.045-.423.155a.174.174 0 01-.049.056c5.182 2.504 5.661 10.694 3.991 12.589-2.004 2.279-5.035 7.438-5.035 7.438s-.254-1.237.112-3.244c.365-2.005-1.368-2.005-3.557-2.918-2.189-.912-.364-3.465-2.281-5.016-1.915-1.55-8.937-.639-8.845-1.824-2.608-.95-1.933-6.168-1.933-6.435" fill="#233862"/><path d="M594.531 254.324c-2.057 8.258-24.298 12.526-29.354 13.395.214-3.583.419-8.121.567-13.858l28.787.463" fill="#98BAF4"/><path d="M589.648 257.008c.214 0 4.946-.706 5.794-1.129.846-.425 4.723-5.933 2.185-7.346-2.538-1.413-9.353 4.237-9.353 4.237l1.374 4.238" fill="#FFB27D"/><path d="M560.867 258.644s18.301.995 30.584-1.635c0 0 .31-3.549-3.548-5.126 0 0-19.146-4.057-23.745-2.927-4.599 1.129-3.291 9.688-3.291 9.688z" fill="#B0D0FF"/><path d="M602.899 244.28c-3.798 4.581-8.764 8.321-14.238 9.196h-.003c-.045-.07-1.656-2.518-1.354-6.113.139-1.665.691-3.576 1.993-5.612a12.35 12.35 0 001.076-2.169c2.99-7.627 2.545-22.329 2.545-22.329s12.694 1.33 16.65 6.982c2.423 3.46-.666 12.805-6.669 20.045" fill="#B0D0FF"/><path d="M580.604 211.808c-.952-.106-1.551-.227-1.551-.227-1.073-.288-1.674-1.978-1.95-4.194 2.011.497 2.934 2.052 3.318 2.713.174.3.21.968.183 1.708" fill="#E2915A"/><path d="M575.489 215.24s-4.383-7.234-.974-7.549c3.409-.315 4.779 1.993 5.272 2.839.492.849-.129 4.671-.129 4.671l-4.169.039" fill="#FFB27D"/><path d="M592.2 247.12a9.528 9.528 0 01-.747 2.511c-1.071 2.378-2.792 3.845-2.792 3.845h-.003c-11.384-5.141-13.688-22.788-14.075-32.486-.156-3.897 0-6.511 0-6.511 5.136-1.701 6.581 1.255 6.581 1.255s6.064 14.423 9.209 23.848c1.204 3.607 1.98 6.482 1.827 7.538" fill="#B0D0FF"/><path d="M602.899 244.28c-3.798 4.581-8.764 8.321-14.238 9.196h-.003c-11.385-5.141-13.689-22.788-14.076-32.486 0 0 5.389 19.542 12.722 26.373 1.325 1.235 2.716 2.054 4.149 2.268 0 0 9.247-2.613 11.187-5.074.137-.178.223-.266.259-.277" fill="#98BAF4"/><path d="M395.514 301.286h-35.368l-10.64-26.458h35.314l10.694 26.458z" fill="#2B478B"/><path d="M359.732 300.256h46.701v1.03h-46.287l-.414-1.03z" fill="#2B478B"/><path d="M369.074 288.058c-.267-.931.27-1.685 1.202-1.685.929 0 1.899.754 2.167 1.685.265.93-.273 1.683-1.202 1.683-.932 0-1.901-.753-2.167-1.683z" fill="#fff"/><path d="M682.423 384.572v.225c0 .36-.333.655-.736.655H32.903c-.404 0-.737-.295-.737-.655v-.225c0-.36.333-.657.737-.657h648.784c.403 0 .736.297.736.657z" fill="#2E3552"/></svg>
